<svg width="30" height="27" viewBox="0 0 30 27" fill="none" xmlns="http://www.w3.org/2000/svg">
<path d="M16.9606 0.690666C16.3628 0.717911 15.769 0.804943 15.1888 0.949581C13.8988 1.27591 12.6919 1.86412 11.6441 2.67715C8.85926 4.81465 7.02433 8.45864 7.02433 12.5949V26.886H11.6441V12.9216C11.684 12.2252 11.9815 11.5678 12.4798 11.0752L14.5106 13.0857L16.5416 11.0752C16.8086 11.3385 17.0204 11.652 17.165 11.9977C17.3094 12.3424 17.3834 12.7123 17.3831 13.0857L17.394 13.0838V26.8867H22.0135C22.0135 26.8867 22.0069 14.3205 22.0069 13.0857C22.0073 11.865 21.7032 10.6637 21.1222 9.58788C20.5412 8.51111 19.7008 7.5933 18.6762 6.91526C17.6511 6.23768 16.4731 5.82043 15.2468 5.70085C14.0202 5.58144 12.7824 5.7636 11.6441 6.23099C11.6441 6.23099 13.1522 4.47431 16.0485 4.47431C16.4993 4.47431 16.949 4.51136 17.3943 4.585C19.1578 4.87693 20.7788 5.72732 22.0139 7.00789C23.5521 8.59502 24.4082 10.7114 24.402 12.911V26.886H29.0218V13.1266C29.0212 5.51013 22.9565 0.678679 17.3937 0.678679C17.3937 0.678679 17.1042 0.681791 16.9606 0.690666ZM11.6441 0.711685C8.47859 0.942421 5.51833 2.35066 3.35839 4.65367C1.1986 6.95652 -0.00125689 9.98349 9.88029e-07 13.1266V26.886H4.54378V12.911C4.53969 10.236 5.40968 7.63129 7.02433 5.48678C8.23472 3.87536 9.81918 2.57719 11.6441 1.70142C12.0412 1.51163 12.4482 1.34162 12.8626 1.19278C13.403 1.03412 13.9532 0.91144 14.5103 0.825342C14.4221 0.81242 14.3345 0.799652 14.2476 0.78813C13.6917 0.715422 13.1317 0.678989 12.5711 0.678679C12.2584 0.678679 11.9492 0.690666 11.6441 0.711685Z" fill="black"/>
</svg>
